<svg viewBox="0 0 24 24.5208" fill="none" xmlns="http://www.w3.org/2000/svg" xmlns:xlink="http://www.w3.org/1999/xlink" x="0" y="0"><defs><mask id="mask0_3620_64847" style="mask-type:luminance" maskUnits="userSpaceOnUse" x="0" y="-0.10159999999996217" width="25" height="26">
<g id="b">
<path id="Vector_56" d="M23.917,10.8984h-11.443v4.74h6.587c-0.614,3.01 -3.182,4.74 -6.587,4.74c-4.019,0 -7.257,-3.24 -7.257,-7.25c0,-4.01 3.238,-7.24 7.257,-7.24c1.731,0 3.293,0.61 4.522,1.61l3.572,-3.57c-2.177,-1.89 -4.968,-3.06 -8.094,-3.06c-6.81,0 -12.281,5.46 -12.281,12.26c0,6.8 5.471,12.26 12.281,12.26c6.14,0 11.722,-4.46 11.722,-12.26c0,-0.72 -0.111,-1.5 -0.279,-2.23z" fill="white"/>
</g>
</mask><mask id="mask1_3620_64847" style="mask-type:luminance" maskUnits="userSpaceOnUse" x="0" y="-0.10159999999996217" width="25" height="26">
<g id="d">
<path id="Vector_58" d="M23.917,10.8984h-11.443v4.74h6.587c-0.614,3.01 -3.182,4.74 -6.587,4.74c-4.019,0 -7.257,-3.24 -7.257,-7.25c0,-4.01 3.238,-7.24 7.257,-7.24c1.731,0 3.293,0.61 4.522,1.61l3.572,-3.57c-2.177,-1.89 -4.968,-3.06 -8.094,-3.06c-6.81,0 -12.281,5.46 -12.281,12.26c0,6.8 5.471,12.26 12.281,12.26c6.14,0 11.722,-4.46 11.722,-12.26c0,-0.72 -0.111,-1.5 -0.279,-2.23z" fill="white"/>
</g>
</mask><mask id="mask2_3620_64847" style="mask-type:luminance" maskUnits="userSpaceOnUse" x="0" y="-0.10159999999996217" width="25" height="26">
<g id="f">
<path id="Vector_60" d="M23.917,10.8984h-11.443v4.74h6.587c-0.614,3.01 -3.182,4.74 -6.587,4.74c-4.019,0 -7.257,-3.24 -7.257,-7.25c0,-4.01 3.238,-7.24 7.257,-7.24c1.731,0 3.293,0.61 4.522,1.61l3.572,-3.57c-2.177,-1.89 -4.968,-3.06 -8.094,-3.06c-6.81,0 -12.281,5.46 -12.281,12.26c0,6.8 5.471,12.26 12.281,12.26c6.14,0 11.722,-4.46 11.722,-12.26c0,-0.72 -0.111,-1.5 -0.279,-2.23z" fill="white"/>
</g>
</mask><mask id="mask3_3620_64847" style="mask-type:luminance" maskUnits="userSpaceOnUse" x="0" y="-0.10159999999996217" width="25" height="26">
<g id="h">
<path id="Vector_62" d="M23.917,10.8984h-11.443v4.74h6.587c-0.614,3.01 -3.182,4.74 -6.587,4.74c-4.019,0 -7.257,-3.24 -7.257,-7.25c0,-4.01 3.238,-7.24 7.257,-7.24c1.731,0 3.293,0.61 4.522,1.61l3.572,-3.57c-2.177,-1.89 -4.968,-3.06 -8.094,-3.06c-6.81,0 -12.281,5.46 -12.281,12.26c0,6.8 5.471,12.26 12.281,12.26c6.14,0 11.722,-4.46 11.722,-12.26c0,-0.72 -0.111,-1.5 -0.279,-2.23z" fill="white"/>
</g>
</mask></defs><g id="Group_3">
<g id="Clip path group">
<mask id="mask0_3620_64847" style="mask-type:luminance" maskUnits="userSpaceOnUse" x="714" y="6744" width="25" height="26">
<g id="b">
<path id="Vector_56" d="M737.917 6755H726.474V6759.74H733.061C732.447 6762.75 729.879 6764.48 726.474 6764.48C722.455 6764.48 719.217 6761.24 719.217 6757.23C719.217 6753.22 722.455 6749.99 726.474 6749.99C728.205 6749.99 729.767 6750.6 730.996 6751.6L734.568 6748.03C732.391 6746.14 729.6 6744.97 726.474 6744.97C719.664 6744.97 714.193 6750.43 714.193 6757.23C714.193 6764.03 719.664 6769.49 726.474 6769.49C732.614 6769.49 738.196 6765.03 738.196 6757.23C738.196 6756.51 738.085 6755.73 737.917 6755Z" fill="white"/>
</g>
</mask>
<g mask="url(#mask0_3620_64847)">
<path id="Vector_57" d="M-0.924,20.3784v-14.49l9.49,7.24z" fill="#FBBC05"/>
</g>
</g>
<g id="Clip path group_2">
<mask id="mask1_3620_64847" style="mask-type:luminance" maskUnits="userSpaceOnUse" x="714" y="6744" width="25" height="26">
<g id="d">
<path id="Vector_58" d="M737.917 6755H726.474V6759.74H733.061C732.447 6762.75 729.879 6764.48 726.474 6764.48C722.455 6764.48 719.217 6761.24 719.217 6757.23C719.217 6753.22 722.455 6749.99 726.474 6749.99C728.205 6749.99 729.767 6750.6 730.996 6751.6L734.568 6748.03C732.391 6746.14 729.6 6744.97 726.474 6744.97C719.664 6744.97 714.193 6750.43 714.193 6757.23C714.193 6764.03 719.664 6769.49 726.474 6769.49C732.614 6769.49 738.196 6765.03 738.196 6757.23C738.196 6756.51 738.085 6755.73 737.917 6755Z" fill="white"/>
</g>
</mask>
<g mask="url(#mask1_3620_64847)">
<path id="Vector_59" d="M-0.924,5.8784l9.49,7.25l3.907,-3.4l13.397,-2.18v-7.8h-26.794z" fill="#EA4335"/>
</g>
</g>
<g id="Group_4">
<g id="Clip path group_3">
<mask id="mask2_3620_64847" style="mask-type:luminance" maskUnits="userSpaceOnUse" x="714" y="6744" width="25" height="26">
<g id="f">
<path id="Vector_60" d="M737.917 6755H726.474V6759.74H733.061C732.447 6762.75 729.879 6764.48 726.474 6764.48C722.455 6764.48 719.217 6761.24 719.217 6757.23C719.217 6753.22 722.455 6749.99 726.474 6749.99C728.205 6749.99 729.767 6750.6 730.996 6751.6L734.568 6748.03C732.391 6746.14 729.6 6744.97 726.474 6744.97C719.664 6744.97 714.193 6750.43 714.193 6757.23C714.193 6764.03 719.664 6769.49 726.474 6769.49C732.614 6769.49 738.196 6765.03 738.196 6757.23C738.196 6756.51 738.085 6755.73 737.917 6755Z" fill="white"/>
</g>
</mask>
<g mask="url(#mask2_3620_64847)">
<path id="Vector_61" d="M-0.924,20.3684l16.746,-12.82l4.41,0.56l5.638,-8.36v26.75h-26.794z" fill="#34A853"/>
</g>
</g>
</g>
<g id="Group_5">
<g id="Clip path group_4">
<mask id="mask3_3620_64847" style="mask-type:luminance" maskUnits="userSpaceOnUse" x="714" y="6744" width="25" height="26">
<g id="h">
<path id="Vector_62" d="M737.917 6755H726.474V6759.74H733.061C732.447 6762.75 729.879 6764.48 726.474 6764.48C722.455 6764.48 719.217 6761.24 719.217 6757.23C719.217 6753.22 722.455 6749.99 726.474 6749.99C728.205 6749.99 729.767 6750.6 730.996 6751.6L734.568 6748.03C732.391 6746.14 729.6 6744.97 726.474 6744.97C719.664 6744.97 714.193 6750.43 714.193 6757.23C714.193 6764.03 719.664 6769.49 726.474 6769.49C732.614 6769.49 738.196 6765.03 738.196 6757.23C738.196 6756.51 738.085 6755.73 737.917 6755Z" fill="white"/>
</g>
</mask>
<g mask="url(#mask3_3620_64847)">
<path id="Vector_63" d="M25.872,26.5084l-17.304,-13.38l-2.233,-1.67l19.537,-5.57z" fill="#4285F4"/>
</g>
</g>
</g>
</g></svg>