<svg viewBox="0 0 24.4281 29.9967" fill="none" xmlns="http://www.w3.org/2000/svg" xmlns:xlink="http://www.w3.org/1999/xlink" x="0" y="0"><g id="Group_6">
<path id="Vector_64" d="M15.234,9.1884c0.985,-0.37 2.033,-0.68 3.079,-0.57h0.015h0.013c0.869,0.04 3.171,0.33 4.796,2.35c-0.953,0.7 -3.06,2.6 -3.029,5.84c0.022,2.43 1.096,4.07 2.168,5.09c0.662,0.63 1.324,1.03 1.745,1.24c-0.247,0.71 -0.833,2.2 -1.875,3.72c-0.63,0.92 -1.238,1.79 -1.928,2.43c-0.679,0.64 -1.402,1.02 -2.26,1.04l-0.319,-0.01c-0.714,-0.04 -1.231,-0.27 -1.844,-0.53c-0.715,-0.31 -1.528,-0.65 -2.783,-0.65c-1.246,0 -2.071,0.32 -2.798,0.62c-0.628,0.27 -1.145,0.51 -1.83,0.58l-0.306,0.03c-0.794,0.03 -1.539,-0.37 -2.273,-1.06c-0.736,-0.69 -1.399,-1.61 -2.031,-2.52h-0.001c-1.248,-1.81 -2.357,-4.37 -2.828,-7.04c-0.473,-2.67 -0.295,-5.39 0.948,-7.55c1.23,-2.13 3.421,-3.47 5.782,-3.51h0.003c0.859,-0.01 1.719,0.28 2.566,0.61c0.408,0.16 0.831,0.33 1.213,0.46c0.381,0.13 0.781,0.24 1.161,0.24c0.391,0 0.824,-0.13 1.238,-0.28c0.405,-0.15 0.917,-0.36 1.378,-0.53z" stroke="#EAEAEA"/>
<path id="Vector_65" fill-rule="evenodd" clip-rule="evenodd" d="M16.836,5.6584c1.049,-1.27 1.752,-3.03 1.559,-4.79c-1.509,0.06 -3.338,1.01 -4.419,2.27c-0.972,1.13 -1.822,2.92 -1.591,4.64c1.683,0.13 3.402,-0.85 4.451,-2.12z" fill="#EAEAEA"/>
</g></svg>