<svg viewBox="0 0 18.4947 13.6375" fill="none" xmlns="http://www.w3.org/2000/svg" xmlns:xlink="http://www.w3.org/1999/xlink" x="0" y="0"><g id="arrow-right">
<path id="Vector_25" d="M11.677,13.6373c-0.19,0 -0.38,-0.07 -0.53,-0.22c-0.29,-0.29 -0.29,-0.77 0,-1.06l5.54,-5.54l-5.54,-5.54c-0.29,-0.29 -0.29,-0.77 0,-1.06c0.29,-0.29 0.77,-0.29 1.06,0l6.07,6.07c0.29,0.29 0.29,0.77 0,1.06l-6.07,6.07c-0.15,0.15 -0.34,0.22 -0.53,0.22z" fill="currentColor"/>
<path id="Vector_26" d="M17.58,7.5703h-16.83c-0.41,0 -0.75,-0.34 -0.75,-0.75c0,-0.41 0.34,-0.75 0.75,-0.75h16.83c0.41,0 0.75,0.34 0.75,0.75c0,0.41 -0.34,0.75 -0.75,0.75z" fill="currentColor"/>
</g></svg>