<svg viewBox="0 0 18.5019 13.6375" x="0" y="0" fill="none" xmlns="http://www.w3.org/2000/svg"><g id="arrow-left" xmlns="http://www.w3.org/2000/svg">
<path id="Vector" d="M6.6406,0.57128c0.0948,-0.09474 0.2588,-0.09474 0.3535,0c0.0945,0.09471 0.0946,0.25785 0,0.35254l-5.8935,5.89358l5.8935,5.8935c0.0946,0.0947 0.0944,0.2578 0,0.3526l-0.0058,0.0068l-0.0059,0.0059c-0.0302,0.0324 -0.0897,0.0615 -0.165,0.0615c-0.0645,0 -0.1255,-0.023 -0.1768,-0.0742l-6.0693,-6.0694c-0.0947,-0.0947 -0.0947,-0.2587 0,-0.3535z" fill="#1F2533" stroke="#F2F2F2"/>
<path id="Vector_2" d="M0.9219,6.5703h16.8301c0.1338,0 0.25,0.1162 0.25,0.25c0,0.1338 -0.1162,0.25 -0.25,0.25h-16.8301c-0.1339,0 -0.25,-0.1161 -0.25,-0.25c0,-0.1339 0.1161,-0.25 0.25,-0.25z" fill="#F2F2F2" stroke="#F2F2F2"/>
</g></svg>