<svg viewBox="0 0 13.4491 15.1641" fill="none" xmlns="http://www.w3.org/2000/svg" xmlns:xlink="http://www.w3.org/1999/xlink" x="0" y="0"><g id="Group_2">
<path id="Vector_10" d="M11.1669,7.331v2c0,2.514 0,3.771 -0.781,4.552c-0.781,0.781 -2.039,0.781 -4.553,0.781c-2.514,0 -3.771,0 -4.552,-0.781c-0.781,-0.781 -0.781,-2.038 -0.781,-4.552v-3c0,-2.192 0,-3.288 0.605,-4.025c0.111,-0.135 0.235,-0.259 0.37,-0.37c0.738,-0.605 1.833,-0.605 4.025,-0.605" stroke="#F2F2F2" stroke-linecap="round" stroke-linejoin="round"/>
<g id="Group 1000004455">
<path id="Vector_11" d="M6.5959,5.854c-0.193,-0.194 -0.252,-0.455 -0.13,-0.578l3.842,-3.841c0.122,-0.123 0.384,-0.064 0.577,0.129c0.193,0.194 0.252,0.455 0.13,0.578l-3.842,3.841c-0.125,0.126 -0.384,0.064 -0.577,-0.129z" fill="#F2F2F2"/>
<path id="Vector_12" d="M11.5209,0.928c-0.089,-0.09 -0.212,-0.146 -0.353,-0.146h-3.159c-0.273,0 -0.499,0.226 -0.499,0.499c0,0.274 0.226,0.5 0.499,0.5h2.659v2.659c0,0.273 0.226,0.499 0.5,0.499c0.273,0 0.5,-0.226 0.5,-0.499v-3.159c0,-0.141 -0.057,-0.264 -0.147,-0.353z" fill="#F2F2F2"/>
</g>
</g></svg>