<svg viewBox="0 0 24 24" fill="none" xmlns="http://www.w3.org/2000/svg" xmlns:xlink="http://www.w3.org/1999/xlink" x="0" y="0"><g id="tick-circle">
<g id="Vector">
<path d="M12,22.75c-5.93,0 -10.75,-4.82 -10.75,-10.75c0,-5.93 4.82,-10.75 10.75,-10.75c5.93,0 10.75,4.82 10.75,10.75c0,5.93 -4.82,10.75 -10.75,10.75zM12,2.75c-5.1,0 -9.25,4.15 -9.25,9.25c0,5.1 4.15,9.25 9.25,9.25c5.1,0 9.25,-4.15 9.25,-9.25c0,-5.1 -4.15,-9.25 -9.25,-9.25z" fill="#1DBF53"/>
<path d="M12,2.75c-5.1,0 -9.25,4.15 -9.25,9.25c0,5.1 4.15,9.25 9.25,9.25c5.1,0 9.25,-4.15 9.25,-9.25c0,-5.1 -4.15,-9.25 -9.25,-9.25z" fill="#1DBF53"/>
</g>
<path id="Vector_2" d="M10.578,15.5816c-0.2,0 -0.39,-0.08 -0.53,-0.22l-2.83,-2.83c-0.29,-0.29 -0.29,-0.77 0,-1.06c0.289,-0.29 0.769,-0.29 1.059,0l2.301,2.3l5.14,-5.14c0.29,-0.29 0.77,-0.29 1.06,0c0.29,0.29 0.29,0.77 0,1.06l-5.67,5.67c-0.141,0.14 -0.33,0.22 -0.53,0.22z" fill="#F2F2F2"/>
</g></svg>