<svg viewBox="0 0 13.3333 13.3333" fill="none" xmlns="http://www.w3.org/2000/svg" xmlns:xlink="http://www.w3.org/1999/xlink" x="0" y="0"><path id="Vector_9" d="M6.6671,3.0001c-0.185,0 -0.334,0.149 -0.334,0.333v3.128l-1.804,0.908c-0.112,0.057 -0.183,0.172 -0.183,0.297c0,0.185 0.149,0.334 0.333,0.334c0.052,0 0.103,-0.012 0.15,-0.036l1.987,-1c0.113,-0.056 0.184,-0.172 0.184,-0.297v-3.334c0,-0.184 -0.149,-0.333 -0.333,-0.333zM6.6671,0.0001c-3.682,0 -6.667,2.985 -6.667,6.667c0,3.681 2.985,6.666 6.667,6.666c3.68,-0.004 6.662,-2.986 6.666,-6.666c0,-3.682 -2.985,-6.667 -6.666,-6.667zM6.6671,12.6671c-3.314,0 -6,-2.687 -6,-6c0,-3.314 2.686,-6 6,-6c3.312,0.003 5.996,2.687 6,6c0,3.313 -2.687,6 -6,6z" fill="currentColor"/></svg>