<svg viewBox="0 0 100.0004 57.8856" fill="none" xmlns="http://www.w3.org/2000/svg" x="0" y="0"><defs><linearGradient id="paint0_linear_3195_50633" x1="16.663999999999987" y1="25.075400000000002" x2="100" y2="25.075400000000002" gradientUnits="userSpaceOnUse">
<stop stop-color="#6A57E5"/>
<stop offset="0.759615" stop-color="#8EF1FF"/>
</linearGradient><linearGradient id="paint1_linear_3195_50633" x1="0" y1="32.81039999999996" x2="83.33600000000001" y2="32.81039999999996" gradientUnits="userSpaceOnUse">
<stop stop-color="#6A57E5"/>
<stop offset="0.759615" stop-color="#8EF1FF"/>
</linearGradient></defs><g id="Group 1000004464">
<path id="Vector_3" d="M81.254,15.4344c-5.753,-12.782 -21.608,-18.825 -35.412,-13.499c-9.439,3.643 -15.857,11.897 -16.593,21.341c-7.977,1.022 -13.549,7.837 -12.446,15.223c0.999,6.684 7.172,11.658 14.458,11.652h49.992c10.354,0 18.747,-7.772 18.747,-17.359c0,-9.586 -8.393,-17.358 -18.746,-17.358z" fill="url(#paint0_linear_3195_50633)" fill-opacity="0.4"/>
<path id="Vector_4" d="M64.589,23.1684c-5.753,-12.781 -21.607,-18.825 -35.412,-13.498c-9.438,3.642 -15.856,11.897 -16.592,21.341c-7.977,1.021 -13.549,7.837 -12.446,15.223c0.999,6.683 7.172,11.658 14.458,11.651h49.992c10.354,0 18.747,-7.772 18.747,-17.358c0,-9.587 -8.393,-17.359 -18.747,-17.359z" fill="url(#paint1_linear_3195_50633)"/>
</g></svg>