<svg viewBox="0 0 20.54 20.9983" fill="none" xmlns="http://www.w3.org/2000/svg" xmlns:xlink="http://www.w3.org/1999/xlink" x="0" y="0"><g id="import">
<path id="Vector_11" d="M13.5304,20.998h-6.52c-4.91,0 -7.01,-2.1 -7.01,-7.01v-0.13c0,-4.44 1.75,-6.58 5.67,-6.95c0.4,-0.03 0.78,0.27 0.82,0.68c0.04,0.41 -0.26,0.78 -0.68,0.82c-3.14,0.29 -4.31,1.77 -4.31,5.46v0.13c0,4.07 1.44,5.51 5.51,5.51h6.52c4.07,0 5.51,-1.44 5.51,-5.51v-0.13c0,-3.71 -1.19,-5.19 -4.39,-5.46c-0.41,-0.04 -0.72,-0.4 -0.68,-0.81c0.04,-0.41 0.39,-0.72 0.81,-0.68c3.98,0.34 5.76,2.49 5.76,6.96v0.13c0,4.89 -2.1,6.99 -7.01,6.99z" fill="currentColor" fill-opacity="0.5"/>
<path id="Vector_12" d="M10.2734,14.38c-0.41,0 -0.75,-0.34 -0.75,-0.75v-12.88c0,-0.41 0.34,-0.75 0.75,-0.75c0.41,0 0.75,0.34 0.75,0.75v12.88c0,0.42 -0.34,0.75 -0.75,0.75z" fill="currentColor" fill-opacity="0.5"/>
<path id="Vector_13" d="M10.2774,15.504c-0.19,0 -0.38,-0.07 -0.53,-0.22l-3.35,-3.35c-0.29,-0.29 -0.29,-0.77 0,-1.06c0.29,-0.29 0.77,-0.29 1.06,0l2.82,2.82l2.82,-2.82c0.29,-0.29 0.77,-0.29 1.06,0c0.29,0.29 0.29,0.77 0,1.06l-3.35,3.35c-0.15,0.15 -0.34,0.22 -0.53,0.22z" fill="currentColor" fill-opacity="0.5"/>
</g></svg>