<svg viewBox="0 0 25 20" fill="none" xmlns="http://www.w3.org/2000/svg" xmlns:xlink="http://www.w3.org/1999/xlink" x="0" y="0"><g id="Vector_12">
<path d="M12.5,11.2497l10,-6.25v-2.5l-10,6.25l-10,-6.25v2.5z" fill="#CC1F1F"/>
<path fill-rule="evenodd" clip-rule="evenodd" d="M2.5,19.9997c-0.688,0 -1.276,-0.244 -1.765,-0.734c-0.489,-0.489 -0.734,-1.077 -0.735,-1.766v-15c0,-0.687 0.245,-1.276 0.735,-1.765c0.49,-0.489 1.078,-0.734 1.765,-0.735h20c0.687,0 1.276,0.245 1.766,0.735c0.49,0.49 0.735,1.079 0.734,1.765v15c0,0.688 -0.245,1.276 -0.734,1.766c-0.489,0.49 -1.078,0.735 -1.766,0.734zM22.5,4.9997l-10,6.25l-10,-6.25v-2.5l10,6.25l10,-6.25z" fill="#E9D7D7"/>
</g></svg>