<svg viewBox="0 0 19.8754 17.0091" x="0" y="0" fill="none" xmlns="http://www.w3.org/2000/svg"><g id="eye" xmlns="http://www.w3.org/2000/svg">
<path id="Vector_11" d="M9.9498,12.595c-2.2535,0 -4.0826,-1.829 -4.0826,-4.083c0,-2.253 1.8291,-4.082 4.0826,-4.082c2.2534,0 4.0825,1.829 4.0825,4.082c0,2.254 -1.8291,4.083 -4.0825,4.083zM9.9498,5.844c-1.4709,0 -2.6683,1.197 -2.6683,2.668c0,1.471 1.1974,2.669 2.6683,2.669c1.4708,0 2.6683,-1.198 2.6683,-2.669c0,-1.471 -1.1975,-2.668 -2.6683,-2.668z" fill="currentColor"/>
<path id="Vector_12" d="M9.9424,17.009c-3.5451,0 -6.8922,-2.074 -9.1928,-5.676c-0.9994,-1.556 -0.9994,-4.092 0,-5.657c2.31,-3.602 5.6571,-5.676 9.1928,-5.676c3.5358,0 6.8829,2.074 9.1835,5.676c0.9994,1.556 0.9994,4.092 0,5.657c-2.3006,3.602 -5.6477,5.676 -9.1835,5.676zM9.9424,1.414c-3.0454,0 -5.9588,1.829 -7.9954,5.026c-0.7071,1.103 -0.7071,3.026 0,4.129c2.0366,3.197 4.95,5.026 7.9954,5.026c3.0455,0 5.9589,-1.829 7.9955,-5.026c0.7071,-1.103 0.7071,-3.026 0,-4.129c-2.0366,-3.197 -4.95,-5.026 -7.9955,-5.026z" fill="currentColor"/>
</g></svg>