<svg viewBox="0 0 21 24" fill="none" xmlns="http://www.w3.org/2000/svg" xmlns:xlink="http://www.w3.org/1999/xlink" x="0" y="0"><defs><clipPath id="clip4_3003_66074">
<rect width="18" height="24" fill="white" transform="translate(3, 0)"/>
</clipPath></defs><g id="File icons">
<g id="file_line" clip-path="url(#clip4_3003_66074)">
<path id="Rectangle" d="M5.4004,0.45h7.9131l7.2363,7.237v13.913c0,1.077 -0.8732,1.95 -1.9502,1.95h-13.1992c-1.077,0 -1.9502,-0.873 -1.9502,-1.95v-19.2c0,-1.077 0.8732,-1.95 1.9502,-1.95z" fill="white" stroke="#C8D2E1" stroke-width="0.9"/>
<path id="Rectangle_2" d="M13.2031,0.602v5.4c0,0.994 0.8059,1.8 1.8,1.8h5.4" stroke="#C8D2E1" stroke-width="0.9" stroke-linecap="round"/>
</g>
<g id="tag_text">
<rect x="0" y="11.601999999999975" width="15" height="9.4" rx="1.2" fill="#FF1607"/>
<path id="text_2" d="M2.1194,18.805v-4.364h1.7216c0.3309,0 0.6129,0.063 0.8459,0.19c0.2329,0.125 0.4105,0.299 0.5326,0.522c0.1236,0.221 0.1854,0.477 0.1854,0.767c0,0.29 -0.0625,0.545 -0.1875,0.767c-0.125,0.221 -0.3061,0.394 -0.5433,0.518c-0.2358,0.123 -0.5213,0.185 -0.8566,0.185h-1.0973v-0.739h0.9482c0.1775,0 0.3238,-0.031 0.4389,-0.092c0.1165,-0.063 0.2031,-0.148 0.2599,-0.258c0.0583,-0.111 0.0874,-0.238 0.0874,-0.381c0,-0.145 -0.0291,-0.272 -0.0874,-0.38c-0.0568,-0.109 -0.1434,-0.193 -0.2599,-0.253c-0.1165,-0.061 -0.2642,-0.092 -0.4432,-0.092h-0.6221v3.61zM7.431,18.805h-1.5469v-4.364h1.5597c0.4389,0 0.8168,0.087 1.1335,0.262c0.3168,0.173 0.5604,0.423 0.7309,0.748c0.1718,0.325 0.2578,0.714 0.2578,1.168c0,0.454 -0.086,0.845 -0.2578,1.171c-0.1705,0.327 -0.4155,0.578 -0.7351,0.753c-0.3182,0.174 -0.6989,0.262 -1.1421,0.262zM6.8067,18.014h0.586c0.2727,0 0.5021,-0.048 0.6882,-0.145c0.1875,-0.098 0.3281,-0.249 0.4219,-0.454c0.0951,-0.205 0.1427,-0.471 0.1427,-0.796c0,-0.323 -0.0476,-0.586 -0.1427,-0.791c-0.0938,-0.204 -0.2337,-0.355 -0.4198,-0.452c-0.1861,-0.096 -0.4155,-0.144 -0.6882,-0.144h-0.5881zM10.1294,18.805v-4.364h2.8892v0.761h-1.9666v1.039h1.7748v0.761h-1.7748v1.803z" fill="white"/>
</g>
</g></svg>