<svg viewBox="0 0 21 24" fill="none" xmlns="http://www.w3.org/2000/svg" xmlns:xlink="http://www.w3.org/1999/xlink" x="0" y="0"><defs><clipPath id="clip5_3003_66074">
<rect width="18" height="24" fill="white" transform="translate(3, 0)"/>
</clipPath></defs><g id="File icons_2">
<g id="file_line_2" clip-path="url(#clip5_3003_66074)">
<path id="Rectangle_3" d="M5.4004,0.45h7.9131l7.2363,7.237v13.913c0,1.077 -0.8732,1.95 -1.9502,1.95h-13.1992c-1.077,0 -1.9502,-0.873 -1.9502,-1.95v-19.2c0,-1.077 0.8732,-1.95 1.9502,-1.95z" fill="white" stroke="#C8D2E1" stroke-width="0.9"/>
<path id="Rectangle_4" d="M13.2031,0.602v5.4c0,0.994 0.8059,1.8 1.8,1.8h5.4" stroke="#C8D2E1" stroke-width="0.9" stroke-linecap="round"/>
</g>
<g id="tag_text_2">
<rect x="0" y="11.601999999999975" width="17" height="9.4" rx="1.2" fill="#6E45F0"/>
<path id="text_3" d="M2.2786,14.441h1.1377l1.2017,2.932h0.0512l1.2017,-2.932h1.1378v4.364h-0.8949v-2.841h-0.0362l-1.1293,2.819h-0.6094l-1.1292,-2.829h-0.0363v2.851h-0.8948zM7.6488,18.805v-4.364h1.7216c0.3309,0 0.6129,0.063 0.8459,0.19c0.2329,0.125 0.4105,0.299 0.5326,0.522c0.1236,0.221 0.1854,0.477 0.1854,0.767c0,0.29 -0.0625,0.545 -0.1875,0.767c-0.125,0.221 -0.3061,0.394 -0.5433,0.518c-0.2358,0.123 -0.5213,0.185 -0.8566,0.185h-1.0973v-0.739h0.9482c0.1776,0 0.3239,-0.031 0.4389,-0.092c0.1165,-0.063 0.2031,-0.148 0.26,-0.258c0.0582,-0.111 0.0873,-0.238 0.0873,-0.381c0,-0.145 -0.0291,-0.272 -0.0873,-0.38c-0.0569,-0.109 -0.1435,-0.193 -0.26,-0.253c-0.1165,-0.061 -0.2642,-0.092 -0.4432,-0.092h-0.6221v3.61zM11.3219,18.038v-0.727l1.8218,-2.87h0.6264v1.006h-0.3707l-1.1485,1.817v0.034h2.5888v0.74zM13.4164,18.805v-0.989l0.017,-0.322v-3.053h0.8651v4.364z" fill="white"/>
</g>
</g></svg>