<svg viewBox="0 0 37.5 50" fill="none" xmlns="http://www.w3.org/2000/svg" xmlns:xlink="http://www.w3.org/1999/xlink" x="0" y="0"><defs><linearGradient id="paint0_linear_3177_48818" x1="19" y1="0" x2="19" y2="50" gradientUnits="userSpaceOnUse">
<stop stop-color="#6A57E5"/>
<stop offset="1" stop-color="#6E45F0"/>
</linearGradient><clipPath id="clip2_3177_48818">
<rect width="37.5" height="50" fill="white" transform="translate(0, 0)"/>
</clipPath></defs><g id="File icons">
<g id="file_color" clip-path="url(#clip2_3177_48818)">
<path id="Rectangle" d="M0,5c0,-2.7614 2.2386,-5 5,-5h16.5333l16.4667,16.25v28.75c0,2.761 -2.2386,5 -5,5h-28c-2.7614,0 -5,-2.239 -5,-5z" fill="url(#paint0_linear_3177_48818)"/>
<path id="Rectangle_2" d="M25,16.25h12.5l-16.25,-16.25v12.5c0,2.0711 1.6789,3.75 3.75,3.75z" fill="white" fill-opacity="0.5"/>
</g>
<g id="Icons" opacity="0.8">
<g id="Group 1000004439">
<g id="ion:gift-outline">
<path id="Vector" d="M19,25.82v2.461M19,25.82c0,-0.486 0.1443,-0.962 0.4147,-1.367c0.2705,-0.405 0.6548,-0.72 1.1045,-0.906c0.4497,-0.187 0.9445,-0.235 1.4218,-0.14c0.4774,0.095 0.9159,0.329 1.2601,0.673c0.3442,0.344 0.5785,0.783 0.6735,1.26c0.0949,0.478 0.0462,0.972 -0.1401,1.422c-0.1862,0.45 -0.5016,0.834 -0.9063,1.105c-0.4047,0.27 -0.8805,0.414 -1.3673,0.414h-2.4609M19,25.82c0,-0.486 -0.1443,-0.962 -0.4147,-1.367c-0.2705,-0.405 -0.6548,-0.72 -1.1045,-0.906c-0.4497,-0.187 -0.9445,-0.235 -1.4218,-0.14c-0.4774,0.095 -0.9159,0.329 -1.2601,0.673c-0.3441,0.344 -0.5785,0.783 -0.6735,1.26c-0.0949,0.478 -0.0462,0.972 0.1401,1.422c0.1862,0.45 0.5016,0.834 0.9063,1.105c0.4047,0.27 0.8805,0.414 1.3673,0.414h2.4609" stroke="#F2F2F2" stroke-width="1.40625" stroke-miterlimit="10" stroke-linecap="round"/>
<path id="Vector_2" d="M26.0312,28.281h-14.0624c-0.7767,0 -1.4063,0.63 -1.4063,1.407v2.109c0,0.777 0.6296,1.406 1.4063,1.406h14.0624c0.7767,0 1.4063,-0.629 1.4063,-1.406v-2.109c0,-0.777 -0.6296,-1.407 -1.4063,-1.407z" stroke="#F2F2F2" stroke-width="1.40625" stroke-linecap="round" stroke-linejoin="round"/>
<path id="Vector_3" d="M26.0312,33.203v6.328c0,0.56 -0.2222,1.096 -0.6178,1.492c-0.3956,0.395 -0.9321,0.618 -1.4915,0.618h-9.8438c-0.5594,0 -1.0959,-0.223 -1.4915,-0.618c-0.3956,-0.396 -0.6178,-0.932 -0.6178,-1.492v-6.328M19,28.281v13.36" stroke="#F2F2F2" stroke-width="1.40625" stroke-linecap="round" stroke-linejoin="round"/>
</g>
</g>
</g>
</g></svg>