<svg viewBox="0 0 12 6.75" fill="none" xmlns="http://www.w3.org/2000/svg" xmlns:xlink="http://www.w3.org/1999/xlink" x="0" y="0"><path id="Vector_9" d="M6,3.375v2.625M6,3.375c0,-0.519 0.154,-1.027 0.442,-1.458c0.289,-0.432 0.699,-0.769 1.178,-0.967c0.48,-0.199 1.008,-0.251 1.517,-0.15c0.509,0.102 0.977,0.352 1.344,0.719c0.367,0.367 0.617,0.835 0.719,1.344c0.101,0.509 0.049,1.037 -0.15,1.517c-0.198,0.479 -0.535,0.889 -0.967,1.178c-0.431,0.288 -0.939,0.442 -1.458,0.442h-2.625M6,3.375c0,-0.519 -0.154,-1.027 -0.442,-1.458c-0.289,-0.432 -0.699,-0.769 -1.178,-0.967c-0.48,-0.199 -1.008,-0.251 -1.517,-0.15c-0.509,0.102 -0.977,0.352 -1.344,0.719c-0.367,0.367 -0.617,0.835 -0.719,1.344c-0.101,0.509 -0.049,1.037 0.15,1.517c0.198,0.479 0.535,0.889 0.967,1.178c0.431,0.288 0.939,0.442 1.458,0.442h2.625" stroke="#F2F2F2" stroke-width="1.5" stroke-miterlimit="10" stroke-linecap="round"/></svg>