<svg viewBox="0 0 23.9999 23.3435" fill="none" xmlns="http://www.w3.org/2000/svg" xmlns:xlink="http://www.w3.org/1999/xlink" x="0" y="0"><g id="Group 1000004452">
<g id="Vector">
<path d="M23.0743,-0.0078h-22.1487c-0.5112,0 -0.9256,0.4144 -0.9256,0.9256v21.5001c0,0.5112 0.4144,0.9256 0.9256,0.9256h22.1487c0.5111,0 0.9256,-0.4144 0.9256,-0.9256v-21.5001c0,-0.5112 -0.4145,-0.9256 -0.9256,-0.9256z" fill="#1F2937"/>
<path d="M23.0743,-0.0078h-22.1487c-0.5112,0 -0.9256,0.4144 -0.9256,0.9256v21.5001c0,0.5112 0.4144,0.9256 0.9256,0.9256h22.1487c0.5111,0 0.9256,-0.4144 0.9256,-0.9256v-21.5001c0,-0.5112 -0.4145,-0.9256 -0.9256,-0.9256z" fill="white"/>
</g>
<path id="Vector_2" d="M5.0708,5.8051l0.8038,11.5522c0.0058,0.0818 0.0724,0.1461 0.1544,0.1488l4.0029,0.1348l1.6889,0.0572c0.0947,0.0031 0.1717,-0.0765 0.1652,-0.1713l-0.3054,-4.3866l0.0044,0.0008l4.8238,0.9509c0.1836,0.0362 0.1667,0.3039 -0.0197,0.3169l-3.1258,0.2175c-0.0883,0.006 -0.1549,0.0827 -0.1486,0.1708l0.1956,2.8103c0.0058,0.0817 0.0724,0.1461 0.1544,0.1488l2.5701,0.0873l1.4222,0.0485l1.6751,0.0564c0.0056,0 0.0111,0 0.0164,-0.0002c0.088,-0.0061 0.1546,-0.0825 0.1486,-0.1708l-0.3521,-5.1487l-0.1522,-2.2161l-0.2889,-4.2269c-0.0056,-0.082 -0.0724,-0.1464 -0.1544,-0.1491l-5.6809,-0.1917c-0.0948,-0.0031 -0.1718,0.0764 -0.1652,0.1712l0.2874,4.1295c0.0073,0.1052 -0.0873,0.1886 -0.1907,0.1681l-4.623,-0.9104c-0.1835,-0.0361 -0.1666,-0.3038 0.0198,-0.3169l3.1258,-0.2175c0.0882,-0.006 0.1548,-0.0827 0.1485,-0.1707l-0.1922,-2.7638c-0.0058,-0.0818 -0.0723,-0.1462 -0.1543,-0.1488l-5.688,-0.1918c-0.0892,-0.0029 -0.1635,0.0673 -0.1654,0.1566l-0.001,0.0397c0,0.0049 0,0.0097 0.0003,0.0145z" fill="#1F2636"/>
</g></svg>