<svg viewBox="0 0 21.9335 19.0468" fill="none" xmlns="http://www.w3.org/2000/svg" xmlns:xlink="http://www.w3.org/1999/xlink" x="0" y="0"><g id="Vector_8">
<path d="M0.0008,0.3258l1.2392,17.8097c0.0089,0.126 0.1115,0.2253 0.2379,0.2294l6.1712,0.2078l2.6037,0.0881c0.1461,0.0049 0.2647,-0.1178 0.2547,-0.264l-0.4707,-6.7626l0.0067,0.0011l7.4367,1.466c0.283,0.0558 0.2569,0.4685 -0.0305,0.4885l-4.8189,0.3354c-0.136,0.0093 -0.2387,0.1275 -0.229,0.2632l0.3015,4.3326c0.009,0.1261 0.1116,0.2253 0.238,0.2294l3.9623,0.1346l2.1925,0.0748l2.5825,0.087c0.0086,0 0.0171,0 0.0253,-0.0004c0.1357,-0.0093 0.2383,-0.1272 0.229,-0.2633l-0.5428,-7.9375l-0.2346,-3.4165l-0.4454,-6.5166c-0.0086,-0.1264 -0.1116,-0.2257 -0.238,-0.2297l-8.7581,-0.2956c-0.1461,-0.0049 -0.2648,0.1178 -0.2547,0.264l0.4432,6.3663c0.0111,0.1621 -0.1346,0.2908 -0.2941,0.2592l-7.1271,-1.4036c-0.2829,-0.0558 -0.2569,-0.4685 0.0305,-0.4885l4.8189,-0.3354c0.1361,-0.0093 0.2387,-0.1275 0.2291,-0.2632l-0.2964,-4.2609c-0.0089,-0.126 -0.1115,-0.2253 -0.2379,-0.2294l-8.7689,-0.2956c-0.1376,-0.0044 -0.2521,0.1038 -0.2551,0.2413l-0.0015,0.0614c0,0.0074 0,0.0149 0.0004,0.0223z" fill="#6A57E5"/>
<path d="M0.0008,0.3258l1.2392,17.8097c0.0089,0.126 0.1115,0.2253 0.2379,0.2294l6.1712,0.2078l2.6037,0.0881c0.1461,0.0049 0.2647,-0.1178 0.2547,-0.264l-0.4707,-6.7626l0.0067,0.0011l7.4367,1.466c0.283,0.0558 0.2569,0.4685 -0.0305,0.4885l-4.8189,0.3354c-0.136,0.0093 -0.2387,0.1275 -0.229,0.2632l0.3015,4.3326c0.009,0.1261 0.1116,0.2253 0.238,0.2294l3.9623,0.1346l2.1925,0.0748l2.5825,0.087c0.0086,0 0.0171,0 0.0253,-0.0004c0.1357,-0.0093 0.2383,-0.1272 0.229,-0.2633l-0.5428,-7.9375l-0.2346,-3.4165l-0.4454,-6.5166c-0.0086,-0.1264 -0.1116,-0.2257 -0.238,-0.2297l-8.7581,-0.2956c-0.1461,-0.0049 -0.2648,0.1178 -0.2547,0.264l0.4432,6.3663c0.0111,0.1621 -0.1346,0.2908 -0.2941,0.2592l-7.1271,-1.4036c-0.2829,-0.0558 -0.2569,-0.4685 0.0305,-0.4885l4.8189,-0.3354c0.1361,-0.0093 0.2387,-0.1275 0.2291,-0.2632l-0.2964,-4.2609c-0.0089,-0.126 -0.1115,-0.2253 -0.2379,-0.2294l-8.7689,-0.2956c-0.1376,-0.0044 -0.2521,0.1038 -0.2551,0.2413l-0.0015,0.0614c0,0.0074 0,0.0149 0.0004,0.0223z" fill="#1F2636"/>
<path d="M0.0008,0.3258l1.2392,17.8097c0.0089,0.126 0.1115,0.2253 0.2379,0.2294l6.1712,0.2078l2.6037,0.0881c0.1461,0.0049 0.2647,-0.1178 0.2547,-0.264l-0.4707,-6.7626l0.0067,0.0011l7.4367,1.466c0.283,0.0558 0.2569,0.4685 -0.0305,0.4885l-4.8189,0.3354c-0.136,0.0093 -0.2387,0.1275 -0.229,0.2632l0.3015,4.3326c0.009,0.1261 0.1116,0.2253 0.238,0.2294l3.9623,0.1346l2.1925,0.0748l2.5825,0.087c0.0086,0 0.0171,0 0.0253,-0.0004c0.1357,-0.0093 0.2383,-0.1272 0.229,-0.2633l-0.5428,-7.9375l-0.2346,-3.4165l-0.4454,-6.5166c-0.0086,-0.1264 -0.1116,-0.2257 -0.238,-0.2297l-8.7581,-0.2956c-0.1461,-0.0049 -0.2648,0.1178 -0.2547,0.264l0.4432,6.3663c0.0111,0.1621 -0.1346,0.2908 -0.2941,0.2592l-7.1271,-1.4036c-0.2829,-0.0558 -0.2569,-0.4685 0.0305,-0.4885l4.8189,-0.3354c0.1361,-0.0093 0.2387,-0.1275 0.2291,-0.2632l-0.2964,-4.2609c-0.0089,-0.126 -0.1115,-0.2253 -0.2379,-0.2294l-8.7689,-0.2956c-0.1376,-0.0044 -0.2521,0.1038 -0.2551,0.2413l-0.0015,0.0614c0,0.0074 0,0.0149 0.0004,0.0223z" fill="white"/>
</g></svg>