<svg viewBox="0 0 17.1167 17.9153" x="0" y="0" fill="none" xmlns="http://www.w3.org/2000/svg"><g id="import" xmlns="http://www.w3.org/2000/svg">
<path id="Vector_17" d="M4.7592,11.7429c0.117,0.006 0.222,-0.088 0.233,-0.191c0.011,-0.113 -0.071,-0.217 -0.192,-0.229c-1.36,-0.126 -2.392,-0.518 -3.064,-1.369c-0.66,-0.835 -0.904,-2.031 -0.904,-3.596v-0.108c0,-1.725 0.301,-3.017 1.146,-3.862c0.845,-0.846 2.138,-1.146 3.862,-1.146h5.434c1.724,0 3.017,0.3 3.862,1.146c0.845,0.845 1.146,2.137 1.146,3.862v0.108c0,1.574 -0.249,2.775 -0.921,3.612c-0.683,0.849 -1.732,1.236 -3.114,1.353h0.001c-0.124,0.012 -0.203,0.118 -0.193,0.22c0.011,0.111 0.089,0.183 0.181,0.192h0.044c1.591,-0.136 2.668,-0.626 3.358,-1.46c0.697,-0.842 1.061,-2.108 1.061,-3.924v-0.109c0,-1.989 -0.43,-3.313 -1.265,-4.146c-0.836,-0.834 -2.163,-1.263 -4.16,-1.263h-5.434c-1.998,0 -3.325,0.429 -4.161,1.265c-0.835,0.835 -1.264,2.163 -1.264,4.161v0.108c0.001,1.804 0.357,3.063 1.043,3.903c0.679,0.832 1.737,1.325 3.301,1.473z" fill="currentColor" stroke="currentColor" stroke-width="0.833333"/>
<path id="Vector_18" d="M8.5612,5.9349c-0.342,0 -0.625,0.283 -0.625,0.625v10.733c0,0.342 0.283,0.625 0.625,0.625c0.342,0 0.625,-0.283 0.625,-0.625v-10.733c0,-0.35 -0.283,-0.625 -0.625,-0.625z" fill="currentColor"/>
<path id="Vector_19" d="M8.5622,4.9959c-0.159,0 -0.317,0.058 -0.442,0.183l-2.792,2.792c-0.241,0.241 -0.241,0.641 0,0.883c0.242,0.242 0.642,0.242 0.884,0l2.35,-2.35l2.35,2.35c0.241,0.242 0.641,0.242 0.883,0c0.242,-0.242 0.242,-0.642 0,-0.883l-2.792,-2.792c-0.125,-0.125 -0.283,-0.183 -0.441,-0.183z" fill="currentColor"/>
</g></svg>