<svg viewBox="0 0 20 20" fill="none" xmlns="http://www.w3.org/2000/svg" xmlns:xlink="http://www.w3.org/1999/xlink" x="0" y="0"><g id="Vector">
<path d="M0,1.433c0,-0.792 0.657,-1.433 1.469,-1.433h17.062c0.812,0 1.469,0.641 1.469,1.433v17.135c0,0.791 -0.657,1.432 -1.469,1.432h-17.062c-0.812,0 -1.469,-0.641 -1.469,-1.432zM6.179,16.743v-9.032h-3.001v9.032zM4.679,6.477c1.046,0 1.697,-0.692 1.697,-1.559c-0.019,-0.887 -0.65,-1.56 -1.677,-1.56c-1.028,0 -1.699,0.674 -1.699,1.56c0,0.867 0.651,1.559 1.659,1.559zM10.814,16.743v-5.044c0,-0.27 0.02,-0.54 0.1,-0.733c0.216,-0.539 0.71,-1.097 1.54,-1.097c1.086,0 1.52,0.827 1.52,2.042v4.832h3.001v-5.181c0,-2.774 -1.48,-4.064 -3.455,-4.064c-1.593,0 -2.306,0.875 -2.706,1.491v0.031h-0.02l0.02,-0.031v-1.278h-3c0.037,0.848 0,9.032 0,9.032z" fill="currentColor"/>
<path d="M6.179,16.743v-9.032h-3.001v9.032z" fill="white"/>
<path d="M4.679,6.477c1.046,0 1.697,-0.692 1.697,-1.559c-0.019,-0.887 -0.65,-1.56 -1.677,-1.56c-1.028,0 -1.699,0.674 -1.699,1.56c0,0.867 0.651,1.559 1.659,1.559z" fill="white"/>
<path d="M10.814,16.743v-5.044c0,-0.27 0.02,-0.54 0.1,-0.733c0.216,-0.539 0.71,-1.097 1.54,-1.097c1.086,0 1.52,0.827 1.52,2.042v4.832h3.001v-5.181c0,-2.774 -1.48,-4.064 -3.455,-4.064c-1.593,0 -2.306,0.875 -2.706,1.491v0.031h-0.02l0.02,-0.031v-1.278h-3c0.037,0.848 0,9.032 0,9.032z" fill="white"/>
</g></svg>