<svg viewBox="0 0 10.6792 13.0126" fill="none" xmlns="http://www.w3.org/2000/svg" xmlns:xlink="http://www.w3.org/1999/xlink" x="0" y="0"><g id="microphone-slash_3">
<path id="Vector_67" d="M2.9206,6.3546c-0.25,0 -0.45,-0.205 -0.45,-0.454v-3.026c0,-1.585 1.29,-2.875 2.87,-2.875c1.59,0 2.88,1.29 2.88,2.875v0.182c0,0.248 -0.21,0.454 -0.46,0.454c-0.24,0 -0.45,-0.206 -0.45,-0.454v-0.182c0,-1.083 -0.88,-1.967 -1.97,-1.967c-1.08,0 -1.96,0.884 -1.96,1.967v3.026c0,0.249 -0.21,0.454 -0.46,0.454z" fill="currentColor"/>
<path id="Vector_68" d="M5.3406,9.0766c-0.81,0 -1.59,-0.345 -2.13,-0.944c-0.17,-0.188 -0.15,-0.472 0.03,-0.642c0.19,-0.169 0.47,-0.151 0.64,0.031c0.37,0.411 0.9,0.647 1.46,0.647c1.08,0 1.97,-0.883 1.97,-1.967v-0.302c0,-0.248 0.2,-0.454 0.45,-0.454c0.25,0 0.46,0.206 0.46,0.454v0.302c0,1.586 -1.29,2.875 -2.88,2.875z" fill="currentColor"/>
<path id="Vector_69" d="M5.3406,11.1916c-1.29,0 -2.53,-0.484 -3.47,-1.362c-0.18,-0.169 -0.19,-0.46 -0.02,-0.641c0.17,-0.188 0.46,-0.194 0.64,-0.024c0.78,0.72 1.79,1.119 2.85,1.119c2.3,0 4.17,-1.876 4.17,-4.176v-1.029c0,-0.248 0.21,-0.454 0.46,-0.454c0.25,0 0.45,0.206 0.45,0.454v1.029c0,2.802 -2.28,5.084 -5.08,5.084z" fill="currentColor"/>
<path id="Vector_70" d="M1.0706,8.3656c-0.17,0 -0.34,-0.103 -0.41,-0.279c-0.27,-0.629 -0.4,-1.289 -0.4,-1.979v-1.029c0,-0.248 0.2,-0.454 0.45,-0.454c0.25,0 0.46,0.206 0.46,0.454v1.029c0,0.563 0.1,1.108 0.32,1.622c0.1,0.23 -0.01,0.497 -0.24,0.593c-0.05,0.031 -0.12,0.043 -0.18,0.043z" fill="currentColor"/>
<path id="Vector_71" d="M0.4506,11.1886c-0.11,0 -0.23,-0.042 -0.32,-0.133c-0.17,-0.176 -0.17,-0.466 0,-0.642l9.78,-9.774c0.17,-0.176 0.46,-0.176 0.64,0c0.17,0.175 0.17,0.466 0,0.641l-9.77,9.775c-0.09,0.091 -0.21,0.133 -0.33,0.133z" fill="currentColor"/>
<path id="Vector_72" d="M4.7306,3.3256c-0.24,0 -0.45,-0.206 -0.45,-0.454v-1.816c0,-0.248 0.21,-0.454 0.45,-0.454c0.25,0 0.46,0.206 0.46,0.454v1.816c0,0.248 -0.21,0.454 -0.46,0.454z" fill="currentColor"/>
<path id="Vector_73" d="M5.3406,13.0126c-0.24,0 -0.45,-0.206 -0.45,-0.454v-1.816c0,-0.248 0.21,-0.453 0.45,-0.453c0.25,0 0.46,0.205 0.46,0.453v1.816c0,0.248 -0.21,0.454 -0.46,0.454z" fill="currentColor"/>
</g></svg>