<svg viewBox="0 0 20.0744 19.9638" fill="none" xmlns="http://www.w3.org/2000/svg" x="0" y="0"><g id="search-normal">
<path id="Vector" d="M8.5,17c-4.6903,0 -8.5,-3.8097 -8.5,-8.5c0,-4.6903 3.8097,-8.5 8.5,-8.5c4.6903,0 8.5,3.8097 8.5,8.5c0,4.6903 -3.8097,8.5 -8.5,8.5zM8.5,1.3077c-3.9667,0 -7.1923,3.2256 -7.1923,7.1923c0,3.9667 3.2256,7.1923 7.1923,7.1923c3.9667,0 7.1923,-3.2256 7.1923,-7.1923c0,-3.9667 -3.2256,-7.1923 -7.1923,-7.1923z" fill="currentColor"/>
<path id="Vector_2" d="M17.3474,19.6368c-0.0593,-0.0105 -0.1173,-0.0284 -0.168,-0.0449c-0.3407,-0.106 -2.9429,-2.2472 -3.1119,-3.3706c-0.0874,-0.5889 0.0775,-1.1334 0.4561,-1.5025c0.3786,-0.3692 0.9322,-0.5163 1.5181,-0.413c0.7565,0.1334 3.3125,2.32 3.4893,2.8789c0.1768,0.5588 -0.0125,1.1984 -0.5464,1.7543c-0.6665,0.7007 -1.2664,0.7632 -1.6372,0.6978zM15.1895,16.0597c0.0581,0.4079 0.2021,0.6321 0.3181,0.6679c0.1161,0.0358 0.3634,-0.0659 0.6522,-0.3591c0.2713,-0.281 0.3267,-0.5083 0.2931,-0.6213c-0.0336,-0.113 -0.2217,-0.2609 -0.6073,-0.3289c-0.23,-0.0405 -0.4136,0.0036 -0.5323,0.1127c-0.1112,0.1104 -0.16,0.3006 -0.1238,0.5287z" fill="currentColor"/>
</g></svg>