<svg viewBox="0 0 15.6089 12.4783" fill="none" xmlns="http://www.w3.org/2000/svg" xmlns:xlink="http://www.w3.org/1999/xlink" x="0" y="0"><g id="volume-high_6">
<path id="Vector_85" d="M0.5463,4.787v2.905c0,1.453 0.72,2.179 2.18,2.179h1.04c0.26,0 0.53,0.08 0.77,0.218l2.12,1.329c1.83,1.148 3.33,0.312 3.33,-1.845v-6.667c0,-2.164 -1.5,-2.992 -3.33,-1.845l-2.12,1.33c-0.24,0.138 -0.51,0.217 -0.77,0.217h-1.04c-1.46,0 -2.18,0.727 -2.18,2.179z" stroke="#292D32" stroke-width="1.08941"/>
<path id="Vector_86" d="M12.1663,3.334c1.29,1.721 1.29,4.089 0,5.81" stroke="#292D32" stroke-width="1.08941" stroke-linecap="round" stroke-linejoin="round"/>
<path id="Vector_87" d="M13.4863,1.513c2.1,2.797 2.1,6.646 0,9.442" stroke="#292D32" stroke-width="1.08941" stroke-linecap="round" stroke-linejoin="round"/>
</g></svg>