<svg viewBox="0 0 20.2656 20.13" x="0" y="0" fill="none" xmlns="http://www.w3.org/2000/svg"><g id="Vector_16" xmlns="http://www.w3.org/2000/svg">
<path d="M15.4728,20.1305c-0.5,0 -1.141,-0.161 -1.943,-0.632l-2.819,-1.669c-0.292,-0.17 -0.858,-0.17 -1.141,0l-2.828,1.669c-1.669,0.99 -2.65,0.594 -3.093,0.273c-0.434,-0.32 -1.112,-1.141 -0.669,-3.026l0.669,-2.895c0.076,-0.302 -0.075,-0.82 -0.302,-1.047l-2.338,-2.338c-1.169,-1.169 -1.075,-2.168 -0.914,-2.659c0.16,-0.49 0.669,-1.357 2.291,-1.631l3.007,-0.499c0.283,-0.048 0.689,-0.349 0.811,-0.604l1.669,-3.328c0.754,-1.518 1.744,-1.745 2.263,-1.745c0.519,0 1.509,0.227 2.263,1.745l1.659,3.319c0.132,0.254 0.538,0.556 0.821,0.603l3.007,0.5c1.631,0.273 2.141,1.141 2.291,1.631c0.151,0.49 0.246,1.49 -0.914,2.659l-2.338,2.347c-0.227,0.227 -0.368,0.736 -0.302,1.047l0.669,2.895c0.434,1.885 -0.235,2.706 -0.669,3.026c-0.236,0.17 -0.613,0.359 -1.15,0.359zM10.1358,16.2835c0.462,0 0.924,0.113 1.292,0.33l2.819,1.668c0.82,0.491 1.339,0.491 1.537,0.349c0.198,-0.141 0.339,-0.641 0.132,-1.565l-0.67,-2.894c-0.179,-0.783 0.113,-1.792 0.679,-2.367l2.338,-2.338c0.462,-0.462 0.67,-0.915 0.576,-1.226c-0.104,-0.311 -0.538,-0.566 -1.179,-0.669l-3.008,-0.5c-0.726,-0.123 -1.518,-0.707 -1.848,-1.367l-1.659,-3.319c-0.302,-0.604 -0.679,-0.962 -1.009,-0.962c-0.33,0 -0.707,0.358 -0.999,0.962l-1.669,3.319c-0.33,0.66 -1.122,1.244 -1.848,1.367l-2.999,0.5c-0.641,0.103 -1.074,0.358 -1.178,0.669c-0.104,0.311 0.113,0.773 0.575,1.226l2.338,2.338c0.566,0.566 0.858,1.584 0.679,2.367l-0.669,2.894c-0.217,0.934 -0.066,1.424 0.132,1.565c0.198,0.142 0.707,0.132 1.537,-0.349l2.819,-1.668c0.358,-0.217 0.82,-0.33 1.282,-0.33z" fill="currentColor"/>
<path d="M10.1358,16.2835c0.462,0 0.924,0.113 1.292,0.33l2.819,1.668c0.82,0.491 1.339,0.491 1.537,0.349c0.198,-0.141 0.339,-0.641 0.132,-1.565l-0.67,-2.894c-0.179,-0.783 0.113,-1.792 0.679,-2.367l2.338,-2.338c0.462,-0.462 0.67,-0.915 0.576,-1.226c-0.104,-0.311 -0.538,-0.566 -1.179,-0.669l-3.008,-0.5c-0.726,-0.123 -1.518,-0.707 -1.848,-1.367l-1.659,-3.319c-0.302,-0.604 -0.679,-0.962 -1.009,-0.962c-0.33,0 -0.707,0.358 -0.999,0.962l-1.669,3.319c-0.33,0.66 -1.122,1.244 -1.848,1.367l-2.999,0.5c-0.641,0.103 -1.074,0.358 -1.178,0.669c-0.104,0.311 0.113,0.773 0.575,1.226l2.338,2.338c0.566,0.566 0.858,1.584 0.679,2.367l-0.669,2.894c-0.217,0.934 -0.066,1.424 0.132,1.565c0.198,0.142 0.707,0.132 1.537,-0.349l2.819,-1.668c0.358,-0.217 0.82,-0.33 1.282,-0.33z" fill="currentColor"/>
</g></svg>