<svg viewBox="0 0 21.4938 21.35" x="0" y="0" fill="none" xmlns="http://www.w3.org/2000/svg"><g id="Vector_20" xmlns="http://www.w3.org/2000/svg">
<path d="M16.41,21.3497c-0.53,0 -1.21,-0.17 -2.06,-0.67l-2.99,-1.77c-0.31,-0.18 -0.91,-0.18 -1.21,0l-3,1.77c-1.77,1.05 -2.81,0.63 -3.28,0.29c-0.46,-0.34 -1.18,-1.21 -0.71,-3.21l0.71,-3.07c0.08,-0.32 -0.08,-0.87 -0.32,-1.11l-2.48,-2.48c-1.24,-1.24 -1.14,-2.3 -0.97,-2.82c0.17,-0.52 0.71,-1.44 2.43,-1.73l3.19,-0.53c0.3,-0.05 0.73,-0.37 0.86,-0.64l1.77,-3.53c0.8,-1.61 1.85,-1.85 2.4,-1.85c0.55,0 1.6,0.24 2.4,1.85l1.76,3.52c0.14,0.27 0.57,0.59 0.87,0.64l3.19,0.53c1.73,0.29 2.27,1.21 2.43,1.73c0.16,0.52 0.26,1.58 -0.97,2.82l-2.48,2.49c-0.24,0.24 -0.39,0.78 -0.32,1.11l0.71,3.07c0.46,2 -0.25,2.87 -0.71,3.21c-0.25,0.18 -0.65,0.38 -1.22,0.38zM10.75,17.2697c0.49,0 0.98,0.12 1.37,0.35l2.99,1.77c0.87,0.52 1.42,0.52 1.63,0.37c0.21,-0.15 0.36,-0.68 0.14,-1.66l-0.71,-3.07c-0.19,-0.83 0.12,-1.9 0.72,-2.51l2.48,-2.48c0.49,-0.49 0.71,-0.97 0.61,-1.3c-0.11,-0.33 -0.57,-0.6 -1.25,-0.71l-3.19,-0.53c-0.77,-0.13 -1.61,-0.75 -1.96,-1.45l-1.76,-3.52c-0.32,-0.64 -0.72,-1.02 -1.07,-1.02c-0.35,0 -0.75,0.38 -1.06,1.02l-1.77,3.52c-0.35,0.7 -1.19,1.32 -1.96,1.45l-3.18,0.53c-0.68,0.11 -1.14,0.38 -1.25,0.71c-0.11,0.33 0.12,0.82 0.61,1.3l2.48,2.48c0.6,0.6 0.91,1.68 0.72,2.51l-0.71,3.07c-0.23,0.99 -0.07,1.51 0.14,1.66c0.21,0.15 0.75,0.14 1.63,-0.37l2.99,-1.77c0.38,-0.23 0.87,-0.35 1.36,-0.35z" fill="currentColor"/>
<path d="M10.75,17.2697c0.49,0 0.98,0.12 1.37,0.35l2.99,1.77c0.87,0.52 1.42,0.52 1.63,0.37c0.21,-0.15 0.36,-0.68 0.14,-1.66l-0.71,-3.07c-0.19,-0.83 0.12,-1.9 0.72,-2.51l2.48,-2.48c0.49,-0.49 0.71,-0.97 0.61,-1.3c-0.11,-0.33 -0.57,-0.6 -1.25,-0.71l-3.19,-0.53c-0.77,-0.13 -1.61,-0.75 -1.96,-1.45l-1.76,-3.52c-0.32,-0.64 -0.72,-1.02 -1.07,-1.02c-0.35,0 -0.75,0.38 -1.06,1.02l-1.77,3.52c-0.35,0.7 -1.19,1.32 -1.96,1.45l-3.18,0.53c-0.68,0.11 -1.14,0.38 -1.25,0.71c-0.11,0.33 0.12,0.82 0.61,1.3l2.48,2.48c0.6,0.6 0.91,1.68 0.72,2.51l-0.71,3.07c-0.23,0.99 -0.07,1.51 0.14,1.66c0.21,0.15 0.75,0.14 1.63,-0.37l2.99,-1.77c0.38,-0.23 0.87,-0.35 1.36,-0.35z" fill="currentColor"/>
</g></svg>