<svg viewBox="0 0 15.9851 12.8622" fill="none" xmlns="http://www.w3.org/2000/svg" xmlns:xlink="http://www.w3.org/1999/xlink" x="0" y="0"><g id="profile-2user">
<g id="mid">
<path id="Vector_3" d="M8.0015,5.7571c-0.065,-0.006 -0.143,-0.006 -0.214,0c-1.545,-0.052 -2.772,-1.317 -2.772,-2.875c0,-1.59 1.286,-2.882 2.882,-2.882c1.591,0 2.882,1.292 2.882,2.882c-0.006,1.558 -1.233,2.823 -2.778,2.875z" stroke="#F2F2F2" stroke-width="0.973606" stroke-linecap="round" stroke-linejoin="round"/>
<path id="Vector_4" d="M4.7565,8.1561c-1.571,1.052 -1.571,2.765 0,3.81c1.785,1.195 4.712,1.195 6.497,0c1.571,-1.051 1.571,-2.765 0,-3.81c-1.778,-1.187 -4.706,-1.187 -6.497,0z" stroke="#F2F2F2" stroke-width="0.973606" stroke-linecap="round" stroke-linejoin="round"/>
</g>
<g id="r">
<path id="Vector_5" d="M12.7015,1.9531c1.26,0 2.272,1.019 2.272,2.272c0,1.227 -0.973,2.226 -2.187,2.272c-0.052,-0.007 -0.111,-0.007 -0.169,0" stroke="#F2F2F2" stroke-width="0.973606" stroke-linecap="round" stroke-linejoin="round"/>
<path id="Vector_6" d="M13.9535,12.3401c0.467,-0.098 0.909,-0.286 1.272,-0.565c1.013,-0.759 1.013,-2.012 0,-2.772c-0.357,-0.272 -0.792,-0.454 -1.253,-0.558" stroke="#F2F2F2" stroke-width="0.973606" stroke-linecap="round" stroke-linejoin="round"/>
</g>
<g id="l">
<path id="Vector_7" d="M3.2835,1.9531c-1.26,0 -2.272,1.019 -2.272,2.272c0,1.227 0.973,2.226 2.187,2.272c0.052,-0.007 0.111,-0.007 0.169,0" stroke="#F2F2F2" stroke-width="0.973606" stroke-linecap="round" stroke-linejoin="round"/>
<path id="Vector_8" d="M2.0315,12.3401c-0.467,-0.098 -0.909,-0.286 -1.272,-0.565c-1.013,-0.759 -1.013,-2.012 0,-2.772c0.357,-0.272 0.792,-0.454 1.253,-0.558" stroke="#F2F2F2" stroke-width="0.973606" stroke-linecap="round" stroke-linejoin="round"/>
</g>
</g></svg>