<svg viewBox="0 0 13.0729 13.0814" fill="none" xmlns="http://www.w3.org/2000/svg" xmlns:xlink="http://www.w3.org/1999/xlink" x="0" y="0"><path id="Subtract_3" fill-rule="evenodd" clip-rule="evenodd" d="M6.5337,0.0004c0.74,0 1.46,0.229 2.06,0.656c0.61,0.428 1.06,1.031 1.31,1.728c0.24,0.697 0.26,1.453 0.06,2.163c-0.2,0.71 -0.62,1.34 -1.2,1.801c1.26,0.458 2.35,1.292 3.12,2.39c0.77,1.098 1.19,2.407 1.19,3.749c0,0.157 -0.06,0.308 -0.17,0.42c-0.12,0.111 -0.27,0.174 -0.43,0.174h-11.88c-0.16,0 -0.31,-0.063 -0.42,-0.174c-0.11,-0.112 -0.17,-0.263 -0.17,-0.42c0,-1.342 0.41,-2.651 1.18,-3.749c0.77,-1.098 1.86,-1.932 3.12,-2.39c-0.57,-0.461 -0.99,-1.091 -1.19,-1.801c-0.21,-0.71 -0.19,-1.466 0.06,-2.163c0.24,-0.697 0.7,-1.3 1.3,-1.728c0.6,-0.427 1.32,-0.656 2.06,-0.656zM6.5337,7.1614c-1.31,0 -2.57,0.482 -3.55,1.354c-0.98,0.872 -1.61,2.074 -1.76,3.377h0.23v1.181h10.17v-1.181h0.23c-0.16,-1.303 -0.78,-2.505 -1.76,-3.377c-0.98,-0.872 -2.25,-1.354 -3.56,-1.354zM7.0037,1.2424c-0.46,-0.091 -0.94,-0.045 -1.38,0.135c-0.43,0.18 -0.8,0.485 -1.06,0.876c-0.26,0.391 -0.4,0.85 -0.4,1.32c0,0.63 0.25,1.235 0.69,1.681c0.45,0.446 1.05,0.696 1.68,0.696c0.47,0 0.93,-0.139 1.32,-0.4c0.39,-0.262 0.7,-0.633 0.88,-1.067c0.18,-0.434 0.23,-0.912 0.13,-1.373c-0.09,-0.461 -0.31,-0.885 -0.65,-1.217c-0.33,-0.333 -0.75,-0.559 -1.21,-0.651z" fill="currentColor"/></svg>