<svg viewBox="0 0 12.5545 10.7246" fill="none" xmlns="http://www.w3.org/2000/svg" xmlns:xlink="http://www.w3.org/1999/xlink" x="0" y="0"><g id="video_14">
<path id="Vector_64" d="M6.5853,10.7249h-3.674c-2.149,0 -2.911,-1.507 -2.911,-2.911v-4.903c0,-2.094 0.817,-2.911 2.911,-2.911h3.674c2.094,0 2.911,0.817 2.911,2.911v4.903c0,2.094 -0.817,2.911 -2.911,2.911zM2.9113,0.9199c-1.58,0 -1.991,0.412 -1.991,1.991v4.903c0,0.744 0.26,1.991 1.991,1.991h3.674c1.579,0 1.991,-0.412 1.991,-1.991v-4.903c0,-1.579 -0.412,-1.991 -1.991,-1.991z" fill="currentColor"/>
<path id="Vector_65" d="M11.3623,9.0609c-0.26,0 -0.593,-0.085 -0.975,-0.351l-1.616,-1.132c-0.121,-0.084 -0.193,-0.224 -0.193,-0.375v-3.68c0,-0.151 0.072,-0.29 0.193,-0.375l1.616,-1.132c0.721,-0.502 1.247,-0.357 1.495,-0.23c0.248,0.133 0.672,0.478 0.672,1.356v4.436c0,0.878 -0.424,1.229 -0.672,1.356c-0.115,0.067 -0.296,0.127 -0.52,0.127zM9.4923,6.9609l1.422,0.993c0.272,0.187 0.466,0.205 0.545,0.163c0.084,-0.042 0.175,-0.212 0.175,-0.539v-4.43c0,-0.333 -0.097,-0.496 -0.175,-0.539c-0.079,-0.042 -0.273,-0.024 -0.545,0.164l-1.422,0.992z" fill="currentColor"/>
<path id="Vector_66" d="M5.7523,5.2159c-0.75,0 -1.362,-0.612 -1.362,-1.362c0,-0.75 0.612,-1.362 1.362,-1.362c0.751,0 1.362,0.612 1.362,1.362c0,0.75 -0.611,1.362 -1.362,1.362zM5.7523,3.3999c-0.248,0 -0.454,0.206 -0.454,0.454c0,0.248 0.206,0.454 0.454,0.454c0.248,0 0.454,-0.206 0.454,-0.454c0,-0.248 -0.206,-0.454 -0.454,-0.454z" fill="currentColor"/>
</g></svg>