<svg viewBox="0 0 20 16" x="0" y="0" fill="none" xmlns="http://www.w3.org/2000/svg"><g id="Group" xmlns="http://www.w3.org/2000/svg">
<path id="Vector" d="M0,1c0,-0.2652 0.1054,-0.5196 0.2929,-0.7071c0.1875,-0.1875 0.4419,-0.2929 0.7071,-0.2929h18c0.2652,0 0.5196,0.1054 0.7071,0.2929c0.1875,0.1875 0.2929,0.4419 0.2929,0.7071v14c0,0.2652 -0.1054,0.5196 -0.2929,0.7071c-0.1875,0.1875 -0.4419,0.2929 -0.7071,0.2929h-18c-0.2652,0 -0.5196,-0.1054 -0.7071,-0.2929c-0.1875,-0.1875 -0.2929,-0.4419 -0.2929,-0.7071z" stroke="#888C94" stroke-width="1.2" stroke-linejoin="round"/>
<path id="Vector_2" d="M16,0v16M4,0v16M17,5h3M17,11h3M0,5h3M0,4v2M2.5,0h3M2.5,16h3M14.5,0h3M14.5,16h3M0,11h3M0,10v2M20,10v2M20,4v2" stroke="#888C94" stroke-width="1.2" stroke-linecap="round" stroke-linejoin="round"/>
<path id="Vector_3" d="M8.5,5.5l4,2.5l-4,2.5z" stroke="#888C94" stroke-width="1.2" stroke-linejoin="round"/>
</g></svg>