<svg viewBox="0 0 19.7083 19.7083" x="0" y="0" fill="none" xmlns="http://www.w3.org/2000/svg"><g id="video-play" xmlns="http://www.w3.org/2000/svg">
<path id="Vector_4" d="M19.0204,12.6042v-5.5c0,-4.5833 -1.833,-6.4167 -6.416,-6.4167h-5.5c-4.584,0 -6.417,1.8334 -6.417,6.4167v5.5c0,4.5833 1.833,6.4167 6.417,6.4167h5.5c4.583,0 6.416,-1.8334 6.416,-6.4167z" stroke="#888C94" stroke-width="1.375" stroke-linecap="round" stroke-linejoin="round"/>
<path id="Vector_5" d="M1.1714,5.375h17.38" stroke="#888C94" stroke-width="1.375" stroke-linecap="round" stroke-linejoin="round"/>
<path id="Vector_6" d="M6.6714,0.7969v4.455" stroke="#888C94" stroke-width="1.375" stroke-linecap="round" stroke-linejoin="round"/>
<path id="Vector_7" d="M13.0474,0.7969v4.0425" stroke="#888C94" stroke-width="1.375" stroke-linecap="round" stroke-linejoin="round"/>
<path id="Vector_8" d="M7.7974,12.1065v-1.1c0,-1.4117 0.999,-1.9892 2.218,-1.2834l0.953,0.55l0.954,0.55c1.219,0.7059 1.219,1.8609 0,2.5667l-0.954,0.55l-0.953,0.55c-1.219,0.7058 -2.218,0.1283 -2.218,-1.2833v-1.1z" stroke="#888C94" stroke-width="1.375" stroke-miterlimit="10" stroke-linecap="round" stroke-linejoin="round"/>
</g></svg>