<svg viewBox="0 0 15.0685 12.8696" fill="none" xmlns="http://www.w3.org/2000/svg" xmlns:xlink="http://www.w3.org/1999/xlink" x="0" y="0"><g id="video_16">
<path id="Vector_77" d="M7.9028,12.8692h-4.41c-2.58,0 -3.49,-1.808 -3.49,-3.493v-5.883c0,-2.513 0.98,-3.493 3.49,-3.493h4.41c2.51,0 3.49,0.98 3.49,3.493v5.883c0,2.513 -0.98,3.493 -3.49,3.493zM3.4928,1.1042c-1.9,0 -2.39,0.494 -2.39,2.389v5.883c0,0.893 0.31,2.389 2.39,2.389h4.41c1.89,0 2.39,-0.493 2.39,-2.389v-5.883c0,-1.895 -0.5,-2.389 -2.39,-2.389z" fill="currentColor"/>
<path id="Vector_78" d="M13.6328,10.8682c-0.31,0 -0.71,-0.101 -1.16,-0.421l-1.94,-1.358c-0.15,-0.102 -0.24,-0.269 -0.24,-0.45v-4.416c0,-0.182 0.09,-0.349 0.24,-0.45l1.94,-1.359c0.86,-0.602 1.49,-0.428 1.79,-0.275c0.3,0.159 0.81,0.573 0.81,1.626v5.324c0,1.053 -0.51,1.474 -0.81,1.627c-0.14,0.08 -0.36,0.152 -0.63,0.152zM11.3928,8.3482l1.71,1.191c0.32,0.225 0.56,0.247 0.65,0.196c0.1,-0.051 0.21,-0.254 0.21,-0.646v-5.316c0,-0.4 -0.11,-0.596 -0.21,-0.647c-0.09,-0.051 -0.33,-0.029 -0.65,0.196l-1.71,1.191z" fill="currentColor"/>
<path id="Vector_79" d="M6.9028,6.2522c-0.9,0 -1.64,-0.733 -1.64,-1.634c0,-0.9 0.74,-1.634 1.64,-1.634c0.9,0 1.63,0.734 1.63,1.634c0,0.901 -0.73,1.634 -1.63,1.634zM6.9028,4.0742c-0.3,0 -0.55,0.246 -0.55,0.544c0,0.298 0.25,0.545 0.55,0.545c0.29,0 0.54,-0.247 0.54,-0.545c0,-0.298 -0.25,-0.544 -0.54,-0.544z" fill="currentColor"/>
</g></svg>