<svg viewBox="0 0 13.0087 10.3986" fill="none" xmlns="http://www.w3.org/2000/svg" xmlns:xlink="http://www.w3.org/1999/xlink" x="0" y="0"><g id="volume-high_5">
<path id="Vector_74" d="M0.4545,3.9897v2.421c0,1.21 0.6,1.815 1.82,1.815h0.86c0.22,0 0.45,0.067 0.64,0.182l1.77,1.107c1.52,0.957 2.78,0.261 2.78,-1.537v-5.556c0,-1.803 -1.26,-2.493 -2.78,-1.537l-1.77,1.107c-0.19,0.115 -0.42,0.182 -0.64,0.182h-0.86c-1.22,0 -1.82,0.605 -1.82,1.816z" stroke="#F2F2F2" stroke-width="0.907842"/>
<path id="Vector_75" d="M10.1345,2.7817c1.08,1.435 1.08,3.408 0,4.842" stroke="#F2F2F2" stroke-width="0.907842" stroke-linecap="round" stroke-linejoin="round"/>
<path id="Vector_76" d="M11.2445,1.2667c1.75,2.33 1.75,5.538 0,7.868" stroke="#F2F2F2" stroke-width="0.907842" stroke-linecap="round" stroke-linejoin="round"/>
</g></svg>