<svg width="124" height="37" viewBox="0 0 124 37" fill="none" xmlns="http://www.w3.org/2000/svg">
<path d="M35.5728 0H1.42697C0.638877 0 0 0.638877 0 1.42697V34.573C0 35.3611 0.638877 36 1.42697 36H35.5728C36.3609 36 36.9998 35.3611 36.9998 34.573V1.42697C36.9998 0.638877 36.3609 0 35.5728 0Z" fill="#1F2937"/>
<path d="M35.5728 0H1.42697C0.638877 0 0 0.638877 0 1.42697V34.573C0 35.3611 0.638877 36 1.42697 36H35.5728C36.3609 36 36.9998 35.3611 36.9998 34.573V1.42697C36.9998 0.638877 36.3609 0 35.5728 0Z" fill="white"/>
<path d="M40.1488 7.87611V28.2493H44.4096V19.9675H54.5215V28.2493H58.7824V8.52788L54.5613 7.87611L54.5539 7.875H54.5211V16.1569H44.4093V8.53383L40.1484 7.87611H40.1488Z" fill="#1F2937"/>
<path d="M40.1488 7.87611V28.2493H44.4096V19.9675H54.5215V28.2493H58.7824V8.52788L54.5613 7.87611L54.5539 7.875H54.5211V16.1569H44.4093V8.53383L40.1484 7.87611H40.1488Z" fill="white"/>
<path d="M75.2624 13.2738V28.2466H71.2417V25.4261H70.5517C70.2817 27.0464 68.8414 28.2466 67.191 28.2466H64.4906C61.9701 28.2466 59.9297 26.2062 59.9297 23.6857V17.8644C59.9297 15.344 61.9701 13.2734 64.4906 13.2734H67.191C68.8414 13.2734 70.2814 14.4736 70.5517 16.124H71.2417V13.2734H75.2624V13.2738ZM71.2417 16.8743H65.1806C64.5203 16.8743 63.9503 17.4443 63.9503 18.1046V23.4158C63.9503 24.1059 64.5203 24.6461 65.1806 24.6461H71.2417V16.8747V16.8743Z" fill="#1F2937"/>
<path d="M75.2624 13.2738V28.2466H71.2417V25.4261H70.5517C70.2817 27.0464 68.8414 28.2466 67.191 28.2466H64.4906C61.9701 28.2466 59.9297 26.2062 59.9297 23.6857V17.8644C59.9297 15.344 61.9701 13.2734 64.4906 13.2734H67.191C68.8414 13.2734 70.2814 14.4736 70.5517 16.124H71.2417V13.2734H75.2624V13.2738ZM71.2417 16.8743H65.1806C64.5203 16.8743 63.9503 17.4443 63.9503 18.1046V23.4158C63.9503 24.1059 64.5203 24.6461 65.1806 24.6461H71.2417V16.8747V16.8743Z" fill="white"/>
<path d="M82.8984 28.2489V7.875L86.9492 8.62529V28.2489H82.8984Z" fill="#1F2937"/>
<path d="M82.8984 28.2489V7.875L86.9492 8.62529V28.2489H82.8984Z" fill="white"/>
<path d="M76.75 28.2489V7.875L80.8008 8.62529V28.2489H76.75Z" fill="#1F2937"/>
<path d="M76.75 28.2489V7.875L80.8008 8.62529V28.2489H76.75Z" fill="white"/>
<path d="M88.1084 17.2744C88.3047 14.7618 90.5005 12.8567 93.0132 13.053L99.2055 13.5371C101.718 13.7334 103.591 15.9567 103.395 18.4694L102.941 24.2728C102.745 26.7858 100.551 28.6608 98.0384 28.4641L91.8461 27.98C89.3335 27.7837 87.4581 25.5905 87.6548 23.0775L88.1084 17.274V17.2744ZM97.6309 24.8208C98.289 24.8722 98.8995 24.3784 98.9534 23.6902L99.3676 18.3954C99.4189 17.7373 98.8951 17.1246 98.237 17.0729L93.4508 16.6985C92.7626 16.6446 92.1499 17.1684 92.0986 17.8265L91.6844 23.1213C91.6304 23.8092 92.1569 24.3922 92.8448 24.4461L97.6309 24.8205V24.8208Z" fill="#1F2937"/>
<path d="M88.1084 17.2744C88.3047 14.7618 90.5005 12.8567 93.0132 13.053L99.2055 13.5371C101.718 13.7334 103.591 15.9567 103.395 18.4694L102.941 24.2728C102.745 26.7858 100.551 28.6608 98.0384 28.4641L91.8461 27.98C89.3335 27.7837 87.4581 25.5905 87.6548 23.0775L88.1084 17.274V17.2744ZM97.6309 24.8208C98.289 24.8722 98.8995 24.3784 98.9534 23.6902L99.3676 18.3954C99.4189 17.7373 98.8951 17.1246 98.237 17.0729L93.4508 16.6985C92.7626 16.6446 92.1499 17.1684 92.0986 17.8265L91.6844 23.1213C91.6304 23.8092 92.1569 24.3922 92.8448 24.4461L97.6309 24.8205V24.8208Z" fill="white"/>
<path d="M108.023 19.2144H115.194C116.874 19.2144 118.225 20.5648 118.225 22.245V25.1856C118.225 26.8657 116.874 28.2462 115.194 28.2462H103.492L104.242 24.6457H113.694C113.964 24.6457 114.205 24.4356 114.205 24.1657V22.8153C114.205 22.5454 113.964 22.3052 113.694 22.3052H106.553C104.873 22.3052 103.492 20.9548 103.492 19.2747V16.3341C103.492 14.6539 104.872 13.2734 106.553 13.2734H118.225L117.475 16.874H108.023C107.753 16.874 107.543 17.1141 107.543 17.3841V18.7043C107.543 18.9743 107.753 19.2144 108.023 19.2144Z" fill="#1F2937"/>
<path d="M108.023 19.2144H115.194C116.874 19.2144 118.225 20.5648 118.225 22.245V25.1856C118.225 26.8657 116.874 28.2462 115.194 28.2462H103.492L104.242 24.6457H113.694C113.964 24.6457 114.205 24.4356 114.205 24.1657V22.8153C114.205 22.5454 113.964 22.3052 113.694 22.3052H106.553C104.873 22.3052 103.492 20.9548 103.492 19.2747V16.3341C103.492 14.6539 104.872 13.2734 106.553 13.2734H118.225L117.475 16.874H108.023C107.753 16.874 107.543 17.1141 107.543 17.3841V18.7043C107.543 18.9743 107.753 19.2144 108.023 19.2144Z" fill="white"/>
<path d="M7.82105 8.95083L9.06027 26.7605C9.06919 26.8865 9.17181 26.9858 9.29822 26.9899L15.4694 27.1977L18.0731 27.2858C18.2192 27.2907 18.3378 27.168 18.3278 27.0218L17.8571 20.2592L17.8638 20.2603L25.3005 21.7263C25.5835 21.7821 25.5574 22.1948 25.27 22.2148L20.4511 22.5502C20.3151 22.5595 20.2124 22.6777 20.2221 22.8134L20.5236 27.146C20.5326 27.2721 20.6352 27.3713 20.7616 27.3754L24.7239 27.51L26.9164 27.5848L29.4989 27.6718C29.5075 27.6718 29.516 27.6718 29.5242 27.6714C29.6599 27.6621 29.7625 27.5442 29.7532 27.4081L29.2104 19.4706L28.9758 16.0541L28.5304 9.53753C28.5218 9.41112 28.4188 9.31185 28.2924 9.30776L19.5343 9.01218C19.3882 9.00735 19.2695 9.13004 19.2796 9.27616L19.7228 15.6425C19.7339 15.8046 19.5882 15.9333 19.4287 15.9017L12.3016 14.4981C12.0187 14.4423 12.0447 14.0296 12.3321 14.0096L17.151 13.6742C17.2871 13.6649 17.3897 13.5467 17.3801 13.411L17.0837 9.15012C17.0748 9.02408 16.9722 8.92481 16.8458 8.92072L8.07685 8.62513C7.93929 8.62067 7.82477 8.72887 7.8218 8.86643L7.82031 8.92778C7.82031 8.93522 7.82031 8.94265 7.82068 8.95009L7.82105 8.95083Z" fill="#1F2636"/>
</svg>
