<svg viewBox="0 0 686 35" fill="none" xmlns="http://www.w3.org/2000/svg" x="0" y="0"><g id="Legend">
<g id="apps">
<g id="Ellipse 845">
<circle cx="278" cy="17.5" r="4" fill="#393F6B"/>
<circle cx="278" cy="17.5" r="6" stroke="#393F6B" stroke-opacity="0.2" stroke-width="4"/>
</g>
<path id="Outflow" d="M297.268,22.144c-0.624,0 -1.208,-0.112 -1.752,-0.336c-0.536,-0.232 -1.008,-0.552 -1.416,-0.96c-0.408,-0.416 -0.728,-0.904 -0.96,-1.464c-0.232,-0.568 -0.348,-1.188 -0.348,-1.86c0,-0.672 0.116,-1.288 0.348,-1.848c0.232,-0.568 0.552,-1.056 0.96,-1.464c0.408,-0.416 0.88,-0.736 1.416,-0.96c0.544,-0.224 1.128,-0.336 1.752,-0.336c0.624,0 1.204,0.116 1.74,0.348c0.544,0.224 1.02,0.544 1.428,0.96c0.408,0.408 0.728,0.892 0.96,1.452c0.232,0.56 0.348,1.176 0.348,1.848c0,0.672 -0.116,1.292 -0.348,1.86c-0.232,0.56 -0.552,1.048 -0.96,1.464c-0.408,0.408 -0.884,0.728 -1.428,0.96c-0.536,0.224 -1.116,0.336 -1.74,0.336zM297.268,21.244c0.52,0 0.992,-0.096 1.416,-0.288c0.432,-0.192 0.804,-0.46 1.116,-0.804c0.312,-0.344 0.552,-0.74 0.72,-1.188c0.176,-0.448 0.264,-0.928 0.264,-1.44c0,-0.504 -0.088,-0.98 -0.264,-1.428c-0.168,-0.448 -0.408,-0.844 -0.72,-1.188c-0.312,-0.344 -0.684,-0.612 -1.116,-0.804c-0.424,-0.192 -0.896,-0.288 -1.416,-0.288c-0.52,0 -0.996,0.096 -1.428,0.288c-0.424,0.192 -0.792,0.46 -1.104,0.804c-0.312,0.344 -0.556,0.74 -0.732,1.188c-0.168,0.448 -0.252,0.924 -0.252,1.428c0,0.512 0.084,0.992 0.252,1.44c0.176,0.448 0.42,0.844 0.732,1.188c0.312,0.344 0.684,0.612 1.116,0.804c0.432,0.192 0.904,0.288 1.416,0.288zM305.577,22.144c-0.448,0 -0.856,-0.104 -1.224,-0.312c-0.368,-0.216 -0.66,-0.512 -0.876,-0.888c-0.208,-0.384 -0.312,-0.824 -0.312,-1.32v-4.056h0.9v3.948c0,0.344 0.068,0.648 0.204,0.912c0.144,0.256 0.34,0.456 0.588,0.6c0.256,0.144 0.548,0.216 0.876,0.216c0.328,0 0.62,-0.072 0.876,-0.216c0.256,-0.152 0.456,-0.364 0.6,-0.636c0.144,-0.28 0.216,-0.612 0.216,-0.996v-3.828h0.9v6.432h-0.9v-1.248l0.204,0.048c-0.152,0.416 -0.412,0.744 -0.78,0.984c-0.368,0.24 -0.792,0.36 -1.272,0.36zM312.474,22.072c-0.576,0 -1.02,-0.168 -1.332,-0.504c-0.312,-0.336 -0.468,-0.816 -0.468,-1.44v-3.66h-1.188v-0.9h0.3c0.272,0 0.488,-0.088 0.648,-0.264c0.16,-0.184 0.24,-0.412 0.24,-0.684v-0.54h0.9v1.488h1.416v0.9h-1.416v3.66c0,0.216 0.032,0.408 0.096,0.576c0.064,0.16 0.172,0.288 0.324,0.384c0.16,0.096 0.372,0.144 0.636,0.144c0.064,0 0.14,-0.004 0.228,-0.012c0.088,-0.008 0.164,-0.016 0.228,-0.024v0.804c-0.096,0.024 -0.204,0.04 -0.324,0.048c-0.12,0.016 -0.216,0.024 -0.288,0.024zM315.165,22v-5.532h-1.284v-0.9h1.284v-0.576c0,-0.448 0.1,-0.824 0.3,-1.128c0.2,-0.312 0.464,-0.548 0.792,-0.708c0.328,-0.16 0.68,-0.24 1.056,-0.24c0.08,0 0.172,0.008 0.276,0.024c0.104,0.008 0.188,0.02 0.252,0.036v0.816c-0.056,-0.016 -0.132,-0.024 -0.228,-0.024c-0.096,-0.008 -0.164,-0.012 -0.204,-0.012c-0.384,0 -0.704,0.092 -0.96,0.276c-0.256,0.184 -0.384,0.504 -0.384,0.96v0.576h3.612v0.9h-3.612v5.532zM319.221,22v-9.084h0.9v9.084zM324.82,22.144c-0.608,0 -1.16,-0.144 -1.656,-0.432c-0.496,-0.296 -0.892,-0.696 -1.188,-1.2c-0.288,-0.512 -0.432,-1.092 -0.432,-1.74c0,-0.64 0.144,-1.212 0.432,-1.716c0.288,-0.504 0.676,-0.9 1.164,-1.188c0.496,-0.296 1.056,-0.444 1.68,-0.444c0.624,0 1.18,0.144 1.668,0.432c0.496,0.288 0.884,0.684 1.164,1.188c0.288,0.504 0.432,1.08 0.432,1.728c0,0.656 -0.148,1.24 -0.444,1.752c-0.296,0.504 -0.692,0.9 -1.188,1.188c-0.488,0.288 -1.032,0.432 -1.632,0.432zM324.82,21.244c0.432,0 0.82,-0.108 1.164,-0.324c0.352,-0.216 0.628,-0.512 0.828,-0.888c0.208,-0.376 0.312,-0.796 0.312,-1.26c0,-0.464 -0.104,-0.88 -0.312,-1.248c-0.2,-0.368 -0.476,-0.66 -0.828,-0.876c-0.344,-0.216 -0.732,-0.324 -1.164,-0.324c-0.432,0 -0.824,0.108 -1.176,0.324c-0.344,0.216 -0.62,0.508 -0.828,0.876c-0.208,0.368 -0.312,0.784 -0.312,1.248c0,0.464 0.104,0.884 0.312,1.26c0.208,0.376 0.484,0.672 0.828,0.888c0.352,0.216 0.744,0.324 1.176,0.324zM330.808,22l-2.208,-6.432h1.02l1.824,5.628h-0.36l1.716,-5.628h0.9l1.716,5.628h-0.36l1.836,-5.628h1.008l-2.208,6.432h-0.9l-1.668,-5.508h0.252l-1.668,5.508z" fill="#F2F2F2"/>
</g>
<g id="apps_2">
<g id="Ellipse 845_2">
<circle cx="363" cy="17.5" r="4" fill="#6A57E5"/>
<circle cx="363" cy="17.5" r="6" stroke="#6A57E5" stroke-opacity="0.2" stroke-width="4"/>
</g>
<path id="Inflow" d="M378.056,22v-8.94h0.96v8.94zM380.833,22v-6.432h0.9v1.248l-0.204,-0.048c0.16,-0.416 0.42,-0.744 0.78,-0.984c0.368,-0.24 0.792,-0.36 1.272,-0.36c0.456,0 0.864,0.104 1.224,0.312c0.368,0.208 0.656,0.496 0.864,0.864c0.216,0.36 0.324,0.768 0.324,1.224v4.176h-0.9v-3.828c0,-0.392 -0.072,-0.724 -0.216,-0.996c-0.136,-0.272 -0.332,-0.48 -0.588,-0.624c-0.248,-0.152 -0.536,-0.228 -0.864,-0.228c-0.328,0 -0.62,0.076 -0.876,0.228c-0.256,0.144 -0.456,0.356 -0.6,0.636c-0.144,0.272 -0.216,0.6 -0.216,0.984v3.828zM388.21,22v-5.532h-1.284v-0.9h1.284v-0.576c0,-0.448 0.1,-0.824 0.3,-1.128c0.2,-0.312 0.464,-0.548 0.792,-0.708c0.328,-0.16 0.68,-0.24 1.056,-0.24c0.08,0 0.172,0.008 0.276,0.024c0.104,0.008 0.188,0.02 0.252,0.036v0.816c-0.056,-0.016 -0.132,-0.024 -0.228,-0.024c-0.096,-0.008 -0.164,-0.012 -0.204,-0.012c-0.384,0 -0.704,0.092 -0.96,0.276c-0.256,0.184 -0.384,0.504 -0.384,0.96v0.576h3.612v0.9h-3.612v5.532zM392.266,22v-9.084h0.9v9.084zM397.865,22.144c-0.608,0 -1.16,-0.144 -1.656,-0.432c-0.496,-0.296 -0.892,-0.696 -1.188,-1.2c-0.288,-0.512 -0.432,-1.092 -0.432,-1.74c0,-0.64 0.144,-1.212 0.432,-1.716c0.288,-0.504 0.676,-0.9 1.164,-1.188c0.496,-0.296 1.056,-0.444 1.68,-0.444c0.624,0 1.18,0.144 1.668,0.432c0.496,0.288 0.884,0.684 1.164,1.188c0.288,0.504 0.432,1.08 0.432,1.728c0,0.656 -0.148,1.24 -0.444,1.752c-0.296,0.504 -0.692,0.9 -1.188,1.188c-0.488,0.288 -1.032,0.432 -1.632,0.432zM397.865,21.244c0.432,0 0.82,-0.108 1.164,-0.324c0.352,-0.216 0.628,-0.512 0.828,-0.888c0.208,-0.376 0.312,-0.796 0.312,-1.26c0,-0.464 -0.104,-0.88 -0.312,-1.248c-0.2,-0.368 -0.476,-0.66 -0.828,-0.876c-0.344,-0.216 -0.732,-0.324 -1.164,-0.324c-0.432,0 -0.824,0.108 -1.176,0.324c-0.344,0.216 -0.62,0.508 -0.828,0.876c-0.208,0.368 -0.312,0.784 -0.312,1.248c0,0.464 0.104,0.884 0.312,1.26c0.208,0.376 0.484,0.672 0.828,0.888c0.352,0.216 0.744,0.324 1.176,0.324zM403.853,22l-2.208,-6.432h1.02l1.824,5.628h-0.36l1.716,-5.628h0.9l1.716,5.628h-0.36l1.836,-5.628h1.008l-2.208,6.432h-0.9l-1.668,-5.508h0.252l-1.668,5.508z" fill="#F2F2F2"/>
</g>
</g></svg>